<?xml version="1.0" encoding="UTF-8" standalone="no"?>
<!-- Created with Inkscape (http://www.inkscape.org/) -->

<svg
   width="2000"
   height="500"
   viewBox="0 0 2000 500"
   version="1.1"
   id="svg1"
   xml:space="preserve"
   sodipodi:docname="CESCO_LONG_PATH.svg"
   inkscape:version="1.4 (86a8ad7, 2024-10-11)"
   inkscape:export-filename="CESCO_LONG_FONT.svg"
   inkscape:export-xdpi="96"
   inkscape:export-ydpi="96"
   xmlns:inkscape="http://www.inkscape.org/namespaces/inkscape"
   xmlns:sodipodi="http://sodipodi.sourceforge.net/DTD/sodipodi-0.dtd"
   xmlns:xlink="http://www.w3.org/1999/xlink"
   xmlns="http://www.w3.org/2000/svg"
   xmlns:svg="http://www.w3.org/2000/svg"><sodipodi:namedview
     id="namedview1"
     pagecolor="#ffffff"
     bordercolor="#999999"
     borderopacity="1"
     inkscape:showpageshadow="2"
     inkscape:pageopacity="0"
     inkscape:pagecheckerboard="false"
     inkscape:deskcolor="#d1d1d1"
     inkscape:document-units="px"
     inkscape:zoom="0.26680186"
     inkscape:cx="580.95547"
     inkscape:cy="331.70683"
     inkscape:window-width="1920"
     inkscape:window-height="1017"
     inkscape:window-x="-8"
     inkscape:window-y="-8"
     inkscape:window-maximized="1"
     inkscape:current-layer="layer1"><inkscape:page
       x="0"
       y="0"
       width="2000"
       height="500"
       id="page2"
       margin="0"
       bleed="0" /></sodipodi:namedview><defs
     id="defs1"><linearGradient
       id="linearGradient31"
       inkscape:collect="always"><stop
         style="stop-color:#a201ff;stop-opacity:1;"
         offset="0"
         id="stop30" /><stop
         style="stop-color:#6200ff;stop-opacity:1;"
         offset="1"
         id="stop31" /></linearGradient><linearGradient
       id="linearGradient27"
       inkscape:collect="always"><stop
         style="stop-color:#6201ff;stop-opacity:1;"
         offset="0"
         id="stop27" /><stop
         style="stop-color:#0600ff;stop-opacity:1;"
         offset="1"
         id="stop28" /></linearGradient><linearGradient
       id="linearGradient25"
       inkscape:collect="always"><stop
         style="stop-color:#2383ff;stop-opacity:1;"
         offset="0"
         id="stop25" /><stop
         style="stop-color:#00ffcd;stop-opacity:1;"
         offset="1"
         id="stop26" /></linearGradient><linearGradient
       id="swatch23"
       inkscape:swatch="solid"><stop
         style="stop-color:#3f3f3f;stop-opacity:1;"
         offset="0"
         id="stop23" /></linearGradient><linearGradient
       inkscape:collect="always"
       xlink:href="#linearGradient25"
       id="linearGradient26"
       x1="500"
       y1="579.98523"
       x2="500"
       y2="963.35193"
       gradientUnits="userSpaceOnUse"
       gradientTransform="translate(-7.2987472,-32.448499)" /><linearGradient
       inkscape:collect="always"
       xlink:href="#linearGradient27"
       id="linearGradient28"
       x1="499.99997"
       y1="248.82675"
       x2="499.99997"
       y2="632.19348"
       gradientUnits="userSpaceOnUse"
       gradientTransform="translate(-7.2987472,-32.448499)" /><linearGradient
       inkscape:collect="always"
       xlink:href="#linearGradient31"
       id="linearGradient30"
       x1="500"
       y1="83.087112"
       x2="500"
       y2="233.22701"
       gradientUnits="userSpaceOnUse"
       gradientTransform="translate(-7.2987472,-32.448499)" /></defs><g
     inkscape:label="Layer 1"
     inkscape:groupmode="layer"
     id="layer1"><g
       inkscape:label="Layer 1"
       id="layer1-8"
       transform="matrix(0.47709702,0,0,0.47709702,2.2502002,11.45149)"><path
         id="rect2"
         style="fill:url(#linearGradient26);stroke-width:0.459653;stroke-dasharray:none;paint-order:stroke fill markers"
         d="M 684.38461,555.58227 C 536.72981,486.98821 436.54506,652.02484 301.01783,601.01516 V 857.0755 c 0,45.83864 36.90256,82.7412 82.7412,82.7412 h 217.88438 c 45.83864,0 82.7412,-36.90256 82.7412,-82.7412 z" /><path
         id="path25"
         style="fill:url(#linearGradient28);stroke-width:0.459653;stroke-dasharray:none;paint-order:stroke fill markers"
         d="m 383.75903,205.15147 c -45.83864,0 -82.7412,36.90256 -82.7412,82.7412 v 313.12249 c 135.52723,51.00968 235.71198,-114.02695 383.36678,-45.43289 v -267.6896 c 0,-45.83864 -36.90256,-82.7412 -82.7412,-82.7412 z" /><rect
         style="fill:url(#linearGradient30);stroke-width:0.473286;stroke-dasharray:none;paint-order:stroke fill markers"
         id="rect3"
         width="150.13988"
         height="112.24049"
         x="417.63132"
         y="69.58831"
         ry="29.590668" /><circle
         style="fill:#9700ff;fill-opacity:1;stroke-width:0.4;stroke-dasharray:none;paint-order:stroke fill markers"
         id="path3"
         cx="677.11713"
         cy="82.048332"
         r="21.86503" /><circle
         style="fill:#7700ff;fill-opacity:1;stroke-width:0.4;stroke-dasharray:none;paint-order:stroke fill markers"
         id="path3-1"
         cx="676.55347"
         cy="158.22044"
         r="21.86503" /><circle
         style="fill:#8b00ff;fill-opacity:1;stroke-width:0.4;stroke-dasharray:none;paint-order:stroke fill markers"
         id="path3-8"
         cx="614.47681"
         cy="123.39111"
         r="21.86503" /></g><path
       d="m 678.22707,199.94533 q -3.16802,-17.9521 -13.30568,-31.04658 -10.13765,-13.09447 -25.76654,-19.85291 -15.41769,-6.96964 -34.00339,-6.96964 -25.34414,0 -44.56345,12.67208 -19.2193,12.46086 -29.99056,36.749 -10.77126,24.28814 -10.77126,58.29152 0,34.21459 10.77126,58.50273 10.77126,24.28814 29.99056,36.749 19.43051,12.46087 44.56345,12.46087 18.1633,0 33.36979,-6.54723 15.41768,-6.75844 25.76654,-19.43051 10.34886,-12.67207 13.93928,-30.20177 h 55.33471 q -4.22403,29.56817 -21.33132,53.6451 -16.8961,24.07693 -44.77465,38.01621 -27.87856,13.93928 -63.14915,13.93928 -40.33943,0 -72.23081,-18.79691 -31.68017,-19.0081 -49.63227,-54.4899 -17.9521,-35.693 -17.9521,-83.84687 0,-48.36506 17.9521,-83.84686 18.1633,-35.4818 49.84347,-54.2787 31.89138,-19.008111 72.01961,-19.008111 33.79218,0 61.45954,12.883271 27.66735,12.67207 45.40825,36.96021 17.7409,24.07693 22.38733,57.44672 z M 780.87084,96.879153 h 198.95151 v 46.041857 h -144.0392 v 83.63566 h 133.47914 v 46.04186 H 835.78315 v 83.63567 h 144.88401 v 46.46426 H 780.87084 Z m 418.17836,84.058067 q -1.9008,-19.43051 -17.5297,-30.41297 -15.4177,-10.98246 -40.3394,-10.98246 -16.8961,0 -29.5682,5.06883 -12.6721,5.06883 -19.4305,14.15048 -6.7584,9.08165 -6.7584,20.48651 0,17.5297 14.5728,27.24495 14.5729,9.50406 37.8051,14.99529 l 28.7233,7.60324 q 39.4946,9.08165 64.4164,30.20177 25.1329,20.90891 25.1329,57.65792 0,26.82255 -13.7281,47.30906 -13.728,20.48652 -39.917,31.89138 -25.9777,11.19366 -62.0931,11.19366 -35.693,0 -61.882,-10.98246 -26.1889,-11.19366 -40.973,-32.31378 -14.5729,-21.33132 -15.8401,-51.32189 h 54.0675 q 1.9008,23.23213 19.4305,35.4818 17.7409,12.24967 44.7747,12.24967 17.9521,0 31.8913,-5.49123 13.9393,-5.49123 21.5426,-15.41769 7.8144,-10.13765 7.8144,-23.02092 0,-16.6849 -13.9393,-25.97775 -13.728,-9.50405 -41.3954,-16.68489 l -34.637,-8.87045 q -81.5236,-21.33132 -81.5236,-82.36846 0,-26.61135 14.5728,-46.88666 14.5729,-20.48651 40.1283,-31.68018 25.7665,-11.404861 57.6579,-11.404861 32.1026,0 56.8131,11.404861 24.9217,11.19367 38.6498,31.25778 13.9393,20.06411 14.3617,45.61945 z m 308.7761,19.00811 q -3.168,-17.9521 -13.3056,-31.04658 -10.1377,-13.09447 -25.7666,-19.85291 -15.4177,-6.96964 -34.0034,-6.96964 -25.3441,0 -44.5634,12.67208 -19.2193,12.46086 -29.9906,36.749 -10.7712,24.28814 -10.7712,58.29152 0,34.21459 10.7712,58.50273 10.7713,24.28814 29.9906,36.749 19.4305,12.46087 44.5634,12.46087 18.1633,0 33.3698,-6.54723 15.4177,-6.75844 25.7666,-19.43051 10.3488,-12.67207 13.9392,-30.20177 h 55.3347 q -4.224,29.56817 -21.3313,53.6451 -16.8961,24.07693 -44.7746,38.01621 -27.8786,13.93928 -63.1492,13.93928 -40.3394,0 -72.2308,-18.79691 -31.6802,-19.0081 -49.6323,-54.4899 -17.9521,-35.693 -17.9521,-83.84687 0,-48.36506 17.9521,-83.84686 18.1633,-35.4818 49.8435,-54.2787 31.8914,-19.008111 72.0196,-19.008111 33.7922,0 61.4596,12.883271 27.6673,12.67207 45.4082,36.96021 17.7409,24.07693 22.3873,57.44672 z m 375.5157,49.84347 q 0,48.36507 -18.1633,83.84687 -18.1633,35.4818 -50.0547,54.4899 -31.6801,18.79691 -72.0196,18.79691 -40.3394,0 -72.2308,-18.79691 -31.6801,-19.0081 -49.8434,-54.4899 -18.1633,-35.693 -18.1633,-83.84687 0,-48.36506 18.1633,-83.84686 18.1633,-35.4818 49.8434,-54.2787 31.8914,-19.008111 72.2308,-19.008111 40.3395,0 72.0196,19.008111 31.8914,18.7969 50.0547,54.2787 18.1633,35.4818 18.1633,83.84686 z m -55.3347,0 q 0,-34.21459 -10.7712,-58.29152 -10.5601,-24.28814 -29.7794,-36.749 -19.2193,-12.67208 -44.3523,-12.67208 -25.1329,0 -44.3522,12.67208 -19.2193,12.46086 -29.9906,36.749 -10.56,24.07693 -10.56,58.29152 0,34.21459 10.56,58.50273 10.7713,24.07693 29.9906,36.749 19.2193,12.46087 44.3522,12.46087 25.133,0 44.3523,-12.46087 19.2193,-12.67207 29.7794,-36.749 10.7712,-24.28814 10.7712,-58.50273 z"
       id="text1"
       style="-inkscape-font-specification:'Pretendard Semi-Bold';fill:#1a1a1a;stroke:#00f3ff;stroke-width:0"
       aria-label="CESCO" /></g></svg>
